<svg width="32" height="32" viewBox="0 0 32 32" fill="none" xmlns="http://www.w3.org/2000/svg">
<path fill-rule="evenodd" clip-rule="evenodd" d="M10.9091 2.90909H21.0909C25.5092 2.90909 29.0909 6.49081 29.0909 10.9091V21.0909C29.0909 25.5092 25.5092 29.0909 21.0909 29.0909H10.9091C6.49081 29.0909 2.90909 25.5092 2.90909 21.0909V10.9091C2.90909 6.49081 6.49081 2.90909 10.9091 2.90909ZM0 10.9091C0 4.88417 4.88417 0 10.9091 0H21.0909C27.1158 0 32 4.88417 32 10.9091V21.0909C32 27.1158 27.1158 32 21.0909 32H10.9091C4.88417 32 0 27.1158 0 21.0909V10.9091ZM14.373 24.717L18.5173 7.2625H22.9557L21.7366 12.3969H25.3018L24.449 15.9905H20.8834L18.8115 24.717H14.373ZM12.1261 24.7163H7.63281L9.70741 15.9891H14.1957L12.1261 24.7163ZM11.7804 7.2625L10.5586 12.3962H15.0469L16.2687 7.2625H11.7804Z" fill="url(#paint0_linear_194_623)"/>
<defs>
<linearGradient id="paint0_linear_194_623" x1="-0.857145" y1="-0.285711" x2="36.5714" y2="37.1429" gradientUnits="userSpaceOnUse">
<stop stop-color="#2F7AD1"/>
<stop offset="1" stop-color="#FF2222"/>
</linearGradient>
</defs>
</svg>
