<svg width="246" height="36" viewBox="0 0 246 36" fill="none" xmlns="http://www.w3.org/2000/svg">
<path d="M43.2012 26.0301V11.8685C43.2012 11.0483 43.8661 10.3835 44.6862 10.3835H46.3675V26.0301H43.2012Z" fill="#010A14"/>
<path d="M49.4666 26.0301V16.339C49.4666 15.5188 50.1315 14.8539 50.9516 14.8539H52.6329V16.128L52.7648 16.1727C53.5124 15.2786 54.7877 14.6304 56.4368 14.6304C58.6136 14.6304 60.4166 16.2174 60.4166 19.3244V26.0301H57.2504V19.5032C57.2504 17.9386 56.2829 17.268 55.1175 17.268C54.128 17.268 53.2265 17.5809 52.6329 18.2515V26.0301H49.4666Z" fill="#010A14"/>
<path d="M61.9573 17.3127V14.8539H63.5625V12.7626C63.5625 11.9424 64.2274 11.2776 65.0475 11.2776H66.7288V14.8539H69.4553V17.3127H66.7288V21.8055C66.7288 22.8785 67.3224 23.3255 68.18 23.3255C68.6857 23.3255 69.1914 23.2361 69.5652 23.102L70.005 25.6725C69.3893 25.9631 68.4658 26.1419 67.6523 26.1419C65.2995 26.1419 63.5625 24.6443 63.5625 21.9844V17.3127H61.9573Z" fill="#010A14"/>
<path d="M76.7895 14.6304C79.9338 14.6304 82.1106 16.508 82.1766 20.0397V21.3808H74.3708C74.5907 22.9232 75.5582 23.5937 77.625 23.6161C78.7904 23.6161 79.9118 23.3926 80.8573 22.9455L81.407 25.2925C80.2416 25.9407 78.9223 26.2537 77.625 26.2537C73.6672 26.2537 71.1606 24.0631 71.1606 20.4644C71.1606 17.4021 73.2274 14.6751 76.7895 14.6304ZM76.8994 17.268C75.5142 17.268 74.7446 17.9833 74.4588 19.2797H78.9883C78.8564 17.8268 77.9988 17.268 76.8994 17.268Z" fill="#010A14"/>
<path d="M89.1951 23.4149L88.9752 26.2313C85.8529 26.2313 84.4457 24.8678 84.4457 22.2079V11.1979C84.4457 10.3778 85.1105 9.71289 85.9307 9.71289H87.6119V21.8502C87.6119 22.8785 88.1836 23.3479 89.1951 23.4149Z" fill="#010A14"/>
<path d="M96.0234 23.4149L95.8035 26.2313C92.6812 26.2313 91.274 24.8678 91.274 22.2079V11.1979C91.274 10.3778 91.9389 9.71289 92.759 9.71289H94.4403V21.8502C94.4403 22.8785 95.0119 23.3479 96.0234 23.4149Z" fill="#010A14"/>
<path d="M98.4321 26.0301V14.8539H101.598V26.0301H98.4321ZM98.2342 11.6799C98.2342 10.9646 98.8059 10.227 99.9933 10.227C101.247 10.227 101.774 10.9646 101.774 11.6799C101.774 12.3505 101.247 13.1105 99.9933 13.1105C98.8059 13.1105 98.2342 12.3505 98.2342 11.6799Z" fill="#010A14"/>
<path d="M112.608 26.1643V25.0913L112.476 25.0466C111.816 25.7619 110.695 26.2537 109.353 26.2537C106.187 26.2537 104.054 23.6831 104.054 20.442C104.054 17.2009 106.275 14.6304 109.573 14.6304C110.914 14.6304 111.816 14.9657 112.608 15.5692V14.8539H115.774V26.1643C115.774 29.3606 113.025 31.3947 109.837 31.3947C108.342 31.3947 107.089 31.2606 105.769 30.7465L106.209 28.243C107.22 28.6454 108.364 28.7571 109.661 28.7571C111.244 28.7571 112.608 27.7513 112.608 26.1643ZM109.969 23.6161C111.024 23.6161 112.014 23.2584 112.608 22.2973V17.9162C111.926 17.5139 110.98 17.268 109.969 17.268C108.276 17.268 107.22 18.5868 107.22 20.442C107.22 22.2749 108.276 23.6161 109.969 23.6161Z" fill="#010A14"/>
<path d="M123.664 14.6304C126.809 14.6304 128.986 16.508 129.052 20.0397V21.3808H121.246C121.466 22.9232 122.433 23.5937 124.5 23.6161C125.665 23.6161 126.787 23.3926 127.732 22.9455L128.282 25.2925C127.117 25.9407 125.797 26.2537 124.5 26.2537C120.542 26.2537 118.036 24.0631 118.036 20.4644C118.036 17.4021 120.102 14.6751 123.664 14.6304ZM123.774 17.268C122.389 17.268 121.62 17.9833 121.334 19.2797H125.863C125.731 17.8268 124.874 17.268 123.774 17.268Z" fill="#010A14"/>
<path d="M131.321 26.0301V16.339C131.321 15.5188 131.986 14.8539 132.806 14.8539H134.487V16.128L134.619 16.1727C135.366 15.2786 136.642 14.6304 138.291 14.6304C140.468 14.6304 142.271 16.2174 142.271 19.3244V26.0301H139.104V19.5032C139.104 17.9386 138.137 17.268 136.972 17.268C135.982 17.268 135.081 17.5809 134.487 18.2515V26.0301H131.321Z" fill="#010A14"/>
<path d="M143.811 17.3127V14.8539H145.417V12.7626C145.417 11.9424 146.081 11.2776 146.902 11.2776H148.583V14.8539H151.309V17.3127H148.583V21.8055C148.583 22.8785 149.176 23.3255 150.034 23.3255C150.54 23.3255 151.045 23.2361 151.419 23.102L151.859 25.6725C151.243 25.9631 150.32 26.1419 149.506 26.1419C147.154 26.1419 145.417 24.6443 145.417 21.9844V17.3127H143.811Z" fill="#010A14"/>
<path d="M168.779 13.021H164.623V26.0301H161.457V13.021H157.169V11.8685C157.169 11.0483 157.834 10.3835 158.655 10.3835H168.779V13.021Z" fill="#010A14"/>
<path d="M168.425 26.0525V16.339C168.425 15.5188 169.09 14.8539 169.911 14.8539H171.592V16.1057L171.724 16.1504C172.427 15.2786 173.483 14.6304 174.736 14.6304H175.044V17.6256H174.516C173.351 17.6256 172.339 18.028 171.592 18.6538V26.0525H168.425Z" fill="#010A14"/>
<path d="M181.228 14.6304C182.613 14.6304 183.558 15.0328 184.262 15.6139L184.372 15.5469V14.8539H187.538V26.0301H184.372V24.9572L184.24 24.9125C183.558 25.6949 182.415 26.2537 181.008 26.2537C178.039 26.2537 175.709 23.6831 175.709 20.442C175.709 17.2009 178.127 14.6304 181.228 14.6304ZM181.624 23.6161C182.745 23.6161 183.8 23.2137 184.372 22.0961V18.028C183.69 17.5586 182.745 17.268 181.624 17.268C180.106 17.268 178.875 18.5868 178.875 20.442C178.875 22.2749 180.106 23.6161 181.624 23.6161Z" fill="#010A14"/>
<path d="M192.893 20.442C192.893 22.2973 194.234 23.6161 195.927 23.6161C196.741 23.6161 197.489 23.5043 198.148 23.102L198.764 25.6278C197.818 26.1196 196.939 26.2537 195.927 26.2537C192.541 26.2537 189.903 23.6831 189.903 20.442C189.903 17.2009 192.541 14.6304 195.927 14.6304C196.939 14.6304 197.818 14.7198 198.764 15.2116L198.148 17.715C197.577 17.4692 196.873 17.268 195.927 17.268C194.234 17.268 192.893 18.6091 192.893 20.442Z" fill="#010A14"/>
<path d="M208.09 26.0301L204.616 21.582L203.736 22.4314V26.0301H200.57V11.1979C200.57 10.3778 201.235 9.71289 202.055 9.71289H203.736V18.788L203.868 18.8327L207.321 14.8539H211.212L211.256 14.9881L206.727 19.4809L211.982 25.9184L211.938 26.0301H208.09Z" fill="#010A14"/>
<path d="M213.998 26.0301V16.339C213.998 15.5188 214.663 14.8539 215.483 14.8539H217.165V26.0301H213.998ZM213.8 11.6799C213.8 10.9646 214.372 10.227 215.56 10.227C216.813 10.227 217.341 10.9646 217.341 11.6799C217.341 12.3505 216.813 13.1105 215.56 13.1105C214.372 13.1105 213.8 12.3505 213.8 11.6799Z" fill="#010A14"/>
<path d="M220.368 26.0301V16.339C220.368 15.5188 221.033 14.8539 221.853 14.8539H223.534V16.128L223.666 16.1727C224.414 15.2786 225.689 14.6304 227.338 14.6304C229.515 14.6304 231.318 16.2174 231.318 19.3244V26.0301H228.152V19.5032C228.152 17.9386 227.184 17.268 226.019 17.268C225.03 17.268 224.128 17.5809 223.534 18.2515V26.0301H220.368Z" fill="#010A14"/>
<path d="M241.852 26.1643V25.0913L241.72 25.0466C241.06 25.7619 239.939 26.2537 238.598 26.2537C235.431 26.2537 233.299 23.6831 233.299 20.442C233.299 17.2009 235.519 14.6304 238.818 14.6304C240.159 14.6304 241.06 14.9657 241.852 15.5692V14.8539H245.018V26.1643C245.018 29.3606 242.27 31.3947 239.081 31.3947C237.586 31.3947 236.333 31.2606 235.014 30.7465L235.453 28.243C236.465 28.6454 237.608 28.7571 238.906 28.7571C240.489 28.7571 241.852 27.7513 241.852 26.1643ZM239.213 23.6161C240.269 23.6161 241.258 23.2584 241.852 22.2973V17.9162C241.17 17.5139 240.225 17.268 239.213 17.268C237.52 17.268 236.465 18.5868 236.465 20.442C236.465 22.2749 237.52 23.6161 239.213 23.6161Z" fill="#010A14"/>
<path fill-rule="evenodd" clip-rule="evenodd" d="M12.2727 3.27273H23.7271C28.6977 3.27273 32.7271 7.30216 32.7271 12.2727V23.7273C32.7271 28.6978 28.6977 32.7273 23.7271 32.7273H12.2727C7.30213 32.7273 3.27271 28.6978 3.27271 23.7273V12.2727C3.27271 7.30216 7.30213 3.27273 12.2727 3.27273ZM0 12.2727C0 5.49469 5.49466 0 12.2727 0H23.7271C30.5051 0 35.9998 5.49469 35.9998 12.2727V23.7273C35.9998 30.5053 30.5051 36 23.7271 36H12.2727C5.49466 36 0 30.5053 0 23.7273V12.2727ZM16.1719 27.8082L20.8341 8.17188H25.8273L24.4561 13.9473H28.4669L27.5075 17.99H23.4962L21.1651 27.8082H16.1719ZM13.6448 27.8065H8.58984L10.9238 17.9883H15.9731L13.6448 27.8065ZM13.2554 8.17383L11.8809 13.9492H16.9302L18.3047 8.17383H13.2554Z" fill="url(#paint0_linear_207_608)"/>
<defs>
<linearGradient id="paint0_linear_207_608" x1="-0.964283" y1="-0.321425" x2="41.1429" y2="41.7855" gradientUnits="userSpaceOnUse">
<stop stop-color="#2F7AD1"/>
<stop offset="1" stop-color="#FF2222"/>
</linearGradient>
</defs>
</svg>